<svg width="33" height="19" viewBox="0 0 33 19" fill="none" xmlns="http://www.w3.org/2000/svg">
<path d="M16.5757 0.0324249C20.581 0.0324249 24.8744 0.848425 28.2904 3.01776C30.5104 4.43643 32.5757 6.58843 32.5757 9.39109C32.5757 12.6658 29.7797 15.0471 27.101 16.4404C23.913 18.0911 20.1464 18.7444 16.5757 18.7444C12.5717 18.7444 8.28635 17.9378 4.86902 15.7604C2.65035 14.3404 0.575684 12.1898 0.575684 9.39243C0.575684 6.10309 3.36502 3.73109 6.05035 2.33509C9.24768 0.687092 13.0064 0.0324249 16.5757 0.0324249ZM16.5424 1.02709C12.8184 1.02709 8.80635 1.72443 5.57568 3.67109C3.54368 4.88709 1.53568 6.80043 1.53568 9.34176C1.53568 12.3271 4.25568 14.4164 6.68768 15.6164C9.69835 17.0858 13.217 17.6564 16.5424 17.6564C20.273 17.6564 24.2877 16.9591 27.5184 15.0124C29.541 13.7884 31.557 11.8844 31.557 9.34176C31.557 6.35109 28.8437 4.25776 26.405 3.06843C23.3944 1.59643 19.8744 1.02709 16.5424 1.02709ZM2.48902 7.27509L8.61835 6.22976L10.4637 2.22576L12.301 6.22843L18.429 7.27376L12.301 8.32976L10.4637 12.3431L8.61835 8.32976L2.48902 7.27509ZM15.9637 10.3271L18.6677 9.85242L19.4744 8.04043L20.2824 9.85242L22.9864 10.3271L20.2824 10.7938L19.4744 12.6071L18.6677 10.7938L15.9637 10.3271ZM21.5584 5.49909L24.2624 5.03243L25.069 3.21243L25.877 5.03109L28.581 5.49776L25.877 5.97376L25.069 7.78709L24.261 5.97376L21.5584 5.49909ZM18.669 14.0684L21.3624 13.6018L22.1717 11.7818L22.9877 13.6018L25.6904 14.0684L22.9877 14.5444L22.1717 16.3578L21.3637 14.5444L18.669 14.0684ZM10.3624 14.7231L13.0664 14.2564L13.8824 12.4351L14.689 14.2564L17.393 14.7231L14.689 15.1991L13.8824 17.0111L13.0664 15.1991L10.3624 14.7231ZM23.957 10.2524L26.653 9.77643L27.4597 7.96443L28.2757 9.77643L30.9797 10.2524L28.2757 10.7191L27.4597 12.5284L26.6517 10.7191L23.957 10.2524Z" fill="#FBFBFB"/>
</svg>
