<svg width="27" height="32" viewBox="0 0 27 32" fill="none" xmlns="http://www.w3.org/2000/svg">
<path d="M13.5584 0.00156006C12.2192 0.0329285 11.0634 0.411762 10.4071 1.07774C9.82076 1.67374 9.75561 2.30835 10.243 2.6341C10.8583 3.04189 11.8669 3.16495 15.4743 3.28077C18.7752 3.38694 19.171 3.42555 19.7452 3.70786C20.4498 4.05774 20.7563 4.51138 20.7346 5.17977C20.7201 5.73475 20.3557 6.33075 20.0276 6.33075C19.475 6.33075 17.6412 5.86264 16.3454 5.3897C15.825 5.19059 15.2922 5.02536 14.7504 4.89504L14.6587 4.8878C14.3113 4.89745 13.8914 5.17977 12.6849 6.21734C12.1541 6.67339 11.213 7.31282 10.5929 7.64098C8.5805 8.70992 7.96037 9.55687 7.68046 11.62C7.52845 12.7372 7.34265 13.1835 6.4764 14.4841C5.75734 15.5651 5.25062 17.0177 5.24579 17.9998C5.24579 18.4752 5.07688 19.2328 4.80181 20.0243C4.43986 21.0691 4.35782 21.5372 4.33128 22.7316C4.30232 23.9719 4.24683 24.2759 3.93797 24.8526C3.71356 25.2676 3.53742 25.8902 3.47468 26.4789C3.3854 27.3476 3.31301 27.5069 2.6784 28.2645C2.29474 28.7182 1.98106 29.1694 1.98106 29.2659C1.98106 29.319 1.92073 29.4348 1.82904 29.5748C1.80974 29.6665 1.7663 29.7316 1.71081 29.7388C1.6613 29.8084 1.60814 29.8752 1.55155 29.9391C1.01105 30.5665 0.745624 31.288 0.972442 31.5172C1.09068 31.6378 1.1872 31.5992 1.35128 31.3628C1.66255 30.9091 1.84111 30.9646 1.69874 31.4689C1.6167 31.7585 1.63118 31.9177 1.74459 31.9684C1.95693 32.0625 2.76286 31.9346 3.18512 31.7392C3.40712 31.6354 3.5712 31.37 3.69184 30.9188C3.78836 30.5496 3.96692 30.1297 4.08757 29.9874C4.22028 29.8281 4.33128 29.3479 4.36747 28.7664C4.42056 27.9171 4.49053 27.7264 4.97071 27.1063C5.2844 26.7058 5.61497 26.0518 5.74527 25.5813C5.87316 25.1277 6.07585 24.5606 6.19891 24.3218C7.10859 22.5362 7.69494 21.5034 7.7987 21.5034C8.11238 21.5034 8.36333 22.1887 8.36333 23.0477C8.36333 23.7233 8.42124 23.9791 8.59015 24.0756C8.79525 24.1915 8.79766 24.2518 8.61187 24.6258C8.48256 24.897 8.37915 25.1797 8.30301 25.4703C8.16547 26.0494 7.71183 26.6696 7.23648 26.9181C7.01931 27.0339 6.54637 27.42 6.18443 27.7795C5.66323 28.2959 5.52569 28.5275 5.52811 28.9064C5.53052 29.5434 5.73562 29.8764 5.9745 29.6303C6.25923 29.3407 6.38953 29.4252 6.28819 29.8354C6.1965 30.207 6.21097 30.2166 6.66944 30.1249C7.25578 30.0043 7.78663 29.6592 7.88556 29.3359C7.92658 29.2008 8.01586 28.9932 8.08343 28.875C8.1534 28.7544 8.414 28.2139 8.66736 27.6685C8.98105 26.9929 9.3261 26.5151 9.76043 26.1532C10.1079 25.8636 10.4843 25.3979 10.6001 25.1204C10.9355 24.3049 11.9104 23.6051 11.9104 24.1842C11.9104 24.522 11.3602 25.5451 10.9597 25.9529C10.4554 26.4669 10.0669 27.157 10.0669 27.5382C10.0669 27.8736 10.2647 27.9726 10.4216 27.7192C10.576 27.4634 10.7522 27.5648 10.6749 27.864C10.6678 27.8918 10.6622 27.92 10.6581 27.9484C10.6822 28.0208 10.7184 28.0811 10.7666 28.1294C10.827 28.1463 10.9114 28.1535 11.0369 28.1535C11.7656 28.1535 12.4533 27.7337 12.557 27.2245C12.6379 26.9077 12.7613 26.6034 12.9238 26.3197C13.1024 26.0205 13.1651 25.7358 13.1072 25.4969C13.0107 25.1084 13.2713 24.1046 13.4691 24.1046C13.6139 24.1046 14.1303 25.1832 14.2606 25.7695C14.3321 26.0411 14.4604 26.2944 14.637 26.5127C14.8976 26.8047 15.011 26.8216 16.2851 26.7492C17.605 26.6744 17.6677 26.6527 18.0103 26.2256C18.2661 25.9022 18.3868 25.5379 18.4447 24.9057C18.546 23.7909 19.0286 23.0332 20.1337 22.2418L20.959 21.653L21.1617 21.9764C21.2751 22.1525 21.5164 22.6737 21.6997 23.1322C22.0086 23.8947 22.0207 24.0201 21.8566 24.6765C21.7577 25.0722 21.7191 25.5306 21.7697 25.6971C21.8228 25.866 21.7528 26.3149 21.6129 26.7106L21.5043 27.0194L21.4826 27.1546C21.456 27.2749 21.4447 27.3982 21.4488 27.5213L21.6973 27.7868C22.0762 28.2018 22.3392 28.2525 22.4598 27.9364C22.566 27.6468 22.8338 27.6565 22.8338 27.9484C22.8338 28.2549 23.1113 28.1415 23.4323 27.7071C23.6784 27.3693 23.6808 27.309 23.4709 26.7033C23.3454 26.3462 23.2754 25.9433 23.3092 25.8081C23.343 25.6706 23.3092 25.2797 23.232 24.9395C23.0553 24.0666 23.0644 23.1664 23.2585 22.2973C23.3961 21.6265 23.3792 21.4793 23.0582 20.7771C22.8628 20.35 22.7301 19.9712 22.7615 19.9398C22.7952 19.906 23.0631 19.976 23.3599 20.0943C24.7352 20.6444 25.809 20.5189 26.4629 19.7323L26.7959 19.3293C26.8012 19.3072 26.8044 19.2846 26.8056 19.2618L26.0117 19.1894C25.8304 19.1723 25.6494 19.1522 25.4688 19.1291C24.9886 19.0494 24.7787 18.8757 24.0114 18.1904C23.302 17.5582 23.2778 17.51 23.3526 16.9453C23.3985 16.6099 23.3285 15.8788 23.191 15.2539C22.969 14.2356 22.969 14.0884 23.1765 13.3621C23.2995 12.9278 23.4009 12.38 23.4009 12.1484C23.4009 11.4486 23.0196 10.3725 22.5684 9.80058C22.315 9.46433 22.1208 9.08733 21.9941 8.68579C21.8781 8.29621 21.7093 7.92437 21.4922 7.58066C21.1641 7.08842 21.1544 7.02809 21.3499 6.55515C21.4868 6.13601 21.5568 5.69792 21.5574 5.25698C21.5574 4.56446 21.4971 4.39073 21.0965 3.92744C20.2278 2.91883 19.8176 2.82472 15.6674 2.70166C10.8776 2.55688 10.1248 2.3735 10.868 1.5362C11.172 1.19356 11.6691 1.20321 12.7018 1.56998C13.8335 1.97053 15.2161 2.06946 16.0245 1.80887C16.7194 1.58446 16.7315 1.59653 15.5274 1.34075C15.3344 1.29973 15.1727 1.19597 15.1727 1.1067C15.1727 1.07533 15.192 1.05361 15.2234 1.03672C15.2451 0.993286 15.3464 0.983635 15.5371 1.00535C15.6239 1.01018 15.7253 1.01983 15.8459 1.03672C17.7015 1.28767 18.0103 1.30697 18.0103 1.16461C18.0103 0.930549 16.7652 0.447958 15.4647 0.18012C14.838 0.0492107 14.1985 -0.0106875 13.5584 0.00156006ZM14.0724 1.18632C14.2641 1.20358 14.4525 1.24743 14.6322 1.31662L15.2451 1.53861L14.8059 1.54585L14.748 1.54827L14.6732 1.54344C14.4563 1.54903 14.2407 1.50788 14.041 1.42279C13.7925 1.26112 13.848 1.17426 14.0724 1.18632Z" fill="white"/>
</svg>
