<svg xmlns="http://www.w3.org/2000/svg" width="18" height="15" viewBox="0 0 18 15" fill="none"><path d="M13.2556 1.37569C12.8601 3.15541 12.6973 3.98129 12.3716 5.26082C12.0575 6.49383 11.8132 7.64541 11.3945 8.20375C10.9757 8.77373 10.4057 8.89005 10.0219 8.93658C9.82414 8.95984 9.67292 8.97147 9.24253 8.97147C8.81214 8.97147 8.66093 8.95984 8.46318 8.93658C8.07932 8.89005 7.50935 8.77373 7.09059 8.20375C6.67183 7.64541 6.42756 6.49383 6.12512 5.26082C5.79942 3.96966 5.63657 3.15541 5.24108 1.37569C5.24108 1.37569 4.84559 1.38732 4.6711 1.39895C4.42683 1.41059 4.24072 1.43385 4.04297 1.45712C4.04297 1.45712 4.27561 5.12124 4.3803 6.67994C4.48499 8.30844 4.68274 11.0653 4.85722 13.1474C4.85722 13.1474 5.19455 13.2056 5.75289 13.2288C6.3345 13.2637 6.60204 13.2637 6.60204 13.2637C6.84631 12.3448 7.13712 11.0769 7.47445 10.5302C7.75362 10.0882 8.17238 10.0416 8.41665 10.0067C8.78888 9.96021 9.11458 9.94857 9.25417 9.94857C9.40538 9.94857 9.71945 9.94857 10.0917 10.0067C10.336 10.0416 10.7547 10.0882 11.0339 10.5302C11.3712 11.0769 11.6736 12.3448 11.9063 13.2637C11.9063 13.2637 12.1622 13.2637 12.7438 13.2288C13.3021 13.1939 13.6395 13.1474 13.6395 13.1474C13.814 11.0653 14.0117 8.32007 14.1164 6.67994C14.2211 5.13287 14.4537 1.45712 14.4537 1.45712C14.256 1.43385 14.0582 1.41059 13.8256 1.39895C13.6511 1.38732 13.2556 1.37569 13.2556 1.37569Z" fill="white"></path><path d="M17.8736 3.53918C17.6409 1.21275 16.0822 0.724201 14.7213 0.491558C14.035 0.375236 12.8136 0.282179 12.0342 0.247283C11.348 0.200754 9.74272 0.17749 9.25417 0.17749C8.76562 0.17749 7.16038 0.200754 6.47409 0.247283C5.69474 0.282179 4.47336 0.375236 3.78707 0.491558C2.42611 0.724201 0.8674 1.21275 0.634757 3.53918C0.564965 4.17894 0.553333 5.00483 0.564965 5.88887C0.588229 7.36615 0.716183 8.35488 0.785976 9.05281C0.832504 9.52973 1.03025 10.9488 1.28616 11.6817C1.63512 12.6937 1.94919 12.9845 2.32142 13.2869C2.99608 13.8336 4.11277 14.0081 4.34541 14.0546C5.60168 14.2756 8.13748 14.3222 9.2658 14.3222C10.3825 14.3222 12.9299 14.2873 14.1862 14.0546C14.4188 14.0081 15.5355 13.8452 16.2102 13.2869C16.5824 12.9845 16.8965 12.6937 17.2454 11.6817C17.5014 10.9488 17.6991 9.51809 17.7456 9.05281C17.8154 8.36651 17.9434 7.36615 17.9666 5.88887C17.955 4.99319 17.9317 4.16731 17.8736 3.53918ZM17.0128 7.44757C16.8732 9.30872 16.7104 10.4254 16.4777 11.228C16.2683 11.9376 16.0124 12.4029 15.6402 12.7402C15.0121 13.3102 14.1513 13.4265 13.6395 13.5079C12.5461 13.6708 10.6966 13.7289 9.25417 13.7289C7.80015 13.7289 5.96227 13.6708 4.86885 13.5079C4.35704 13.4265 3.49626 13.3102 2.86813 12.7402C2.4959 12.4029 2.23999 11.9259 2.03061 11.228C1.79797 10.4254 1.62349 9.30872 1.49553 7.44757C1.41411 6.33089 1.42574 4.51628 1.5537 3.53918C1.72818 2.07353 2.44937 1.3407 3.99644 1.07316C4.71764 0.945211 5.69474 0.852154 6.61367 0.805625C7.35813 0.759097 8.56787 0.735833 9.25417 0.735833C9.92883 0.724201 11.1502 0.759097 11.883 0.805625C12.802 0.852154 13.7791 0.945211 14.5003 1.07316C16.0473 1.35234 16.7685 2.08516 16.9546 3.53918C17.0826 4.50464 17.0942 6.31926 17.0128 7.44757Z" fill="white"></path></svg>