<svg width="34" height="24" viewBox="0 0 34 24" fill="none" xmlns="http://www.w3.org/2000/svg">
<path fill-rule="evenodd" clip-rule="evenodd" d="M17.2098 1.30884C17.7236 1.32307 17.669 1.68411 17.584 1.80858C16.0677 4.16735 12.485 8.32065 9.87635 12.8775C9.44446 13.6158 9.12281 14.159 9.12281 14.9693C9.12281 16.0678 9.80859 17.3666 11.1863 17.9239C12.0925 18.287 12.663 18.2981 13.6411 18.3122C20.9028 18.5368 23.8139 18.3406 30.3118 18.1201C30.6871 18.119 31.036 17.8662 31.1615 17.7135C32.4178 16.4036 33.142 14.0488 33.142 11.9711C33.142 7.34352 29.8091 3.17511 24.6099 1.17033L23.7755 2.24048C28.3323 4.12388 30.6871 7.88566 30.6871 11.9145C30.6871 12.8209 30.5333 13.6988 30.2551 14.5373C30.0488 15.122 29.795 15.4578 29.0565 15.4689C23.7613 15.5822 20.7632 15.6651 15.4538 15.5256C14.769 15.5114 14.5475 15.2616 14.4362 14.7194C14.3512 14.3977 14.4221 14.1307 14.6436 13.7271C17.4596 8.7384 22.3654 3.03651 23.3284 1.68411C23.5114 1.43429 23.4255 0.930572 22.7973 0.763698C20.9594 0.220496 18.897 0 16.8062 0C7.33949 0.0384276 0.662501 5.36294 0.508789 11.9711C0.888121 19.9034 7.78552 24 16.8062 24C22.326 24 27.3825 22.0488 30.3412 18.9546L27.608 19.0648C25.0843 21.3093 21.0414 22.509 16.8598 22.509C9.23809 22.509 3.03248 18.7189 3.03248 11.9145C3.03248 6.06197 9.23703 1.29471 16.8598 1.29471L17.2098 1.30884Z" fill="white"/>
</svg>
