<svg width="24" height="33" viewBox="0 0 24 33" fill="none" xmlns="http://www.w3.org/2000/svg">
<path d="M10.9663 0.17749C10.9663 0.17749 10.9529 0.36549 10.8956 0.480157C10.8529 0.580157 10.7383 0.650824 10.7529 0.722824C10.7663 0.794824 10.8383 0.88149 10.9529 0.938824C11.0676 0.996157 11.1089 1.03749 11.2236 1.06682C11.3236 1.09482 11.4689 1.16816 11.4969 1.08149C11.5409 0.996157 11.4836 0.880157 11.4116 0.780157C11.2969 0.59349 11.2383 0.550824 11.0809 0.29349C11.0516 0.236157 11.0236 0.17749 10.9663 0.17749ZM11.8703 0.17749C11.8409 0.192157 11.7983 0.40949 11.7263 0.594824C11.6409 0.80949 11.6969 0.90949 11.7396 0.994824C11.7969 1.08149 11.8703 1.13882 11.7263 1.22549C11.5836 1.31082 11.3956 1.28282 11.3956 1.28282C11.3956 1.28282 11.2383 1.25216 11.1089 1.18149C10.976 1.1228 10.8426 1.06502 10.7089 1.00816C10.7089 1.00816 10.4503 0.93749 10.2783 0.952157C10.1063 0.96549 10.0916 0.98149 9.96358 0.996157C9.89158 0.996157 9.86358 0.994824 9.79158 1.00949C9.73425 1.02282 9.66358 0.982824 9.66358 1.05349C9.66358 1.12416 9.80625 1.12549 9.90625 1.16816C10.0063 1.21082 10.2356 1.20949 10.1929 1.26682C10.1356 1.32416 9.92092 1.33882 9.90625 1.32416C9.89292 1.32416 9.75025 1.29616 9.63558 1.29616C9.44892 1.30949 9.43558 1.30949 9.16492 1.43882C9.12092 1.45216 9.13558 1.55349 9.22092 1.52416C9.35147 1.48689 9.48649 1.4676 9.62225 1.46682C9.79558 1.46682 9.89292 1.52549 10.0649 1.56949C10.2089 1.61216 10.2223 1.63882 10.4383 1.66816C10.4809 1.66816 10.5649 1.63882 10.5649 1.69616C10.5649 1.72549 10.5076 1.76949 10.5076 1.76949C10.5076 1.76949 10.3796 1.79616 10.3929 1.84016C10.4223 1.89749 10.5369 1.84016 10.5929 1.84016C10.6516 1.84016 10.7396 1.85616 10.7236 1.91216L10.6956 1.95482C10.5635 1.9893 10.4339 2.0325 10.3076 2.08416C9.94892 2.22816 9.80758 2.40016 9.46358 2.57216C9.13425 2.72949 8.60492 2.92816 8.60492 2.92816C8.60492 2.92816 8.44758 3.01482 8.21825 3.07082C7.99025 3.12949 7.97558 3.11616 7.81825 3.14416C7.69052 3.15152 7.56671 3.19096 7.45825 3.25882C7.38256 3.29808 7.31476 3.35097 7.25825 3.41482L7.05825 3.71749L6.94225 3.88682C6.91425 3.94416 6.88625 3.97216 6.87292 4.02949C6.84358 4.10149 6.82892 4.13082 6.81558 4.20282C6.77292 4.37349 6.81558 4.47482 6.84358 4.64682C6.85825 4.68949 6.85825 4.71882 6.87292 4.76149C6.88625 4.80416 6.94225 4.84816 6.94225 4.84816L6.99958 4.86149C6.99958 4.86149 7.20225 4.84816 7.33025 4.81882C7.45958 4.79082 7.64625 4.74549 7.64625 4.74549L7.88758 4.67616L8.04758 4.61882C8.04758 4.61882 8.14758 4.61882 8.16225 4.67616C8.17558 4.71882 8.13292 4.79082 8.13292 4.79082C8.13292 4.79082 8.04625 4.83082 7.97425 4.86016C7.90225 4.88949 7.73025 4.93216 7.71692 4.94682L7.53025 5.00416L7.37292 5.01882C7.37292 5.01882 7.34358 5.03349 7.31558 5.07616C7.28625 5.12016 7.28625 5.11882 7.28625 5.14682C7.31558 5.17616 7.33025 5.20416 7.35958 5.23349C7.41692 5.27616 7.44492 5.30416 7.51558 5.31882C7.61558 5.36149 7.67292 5.34816 7.77292 5.34816C7.89812 5.34848 8.02158 5.31876 8.13292 5.26149C8.24758 5.18949 8.29025 5.19082 8.44758 5.13349C8.49883 5.11838 8.5516 5.10899 8.60492 5.10549C8.87692 5.07616 9.03158 5.11882 9.30492 5.16282C9.57692 5.20549 9.70758 5.29216 9.97958 5.33482C10.2663 5.37749 10.4369 5.46282 10.7369 5.39216C10.8809 5.36282 10.9676 5.29082 11.0396 5.43349C11.1103 5.56282 11.0969 5.63349 11.0969 5.63349C11.0969 5.63349 11.0956 5.72149 10.9956 5.99349C10.8943 6.26549 10.5809 6.93882 10.5809 6.93882L10.3649 7.36816C10.3649 7.36816 10.1916 7.71082 9.79158 8.15482C9.65005 8.31234 9.50783 8.46923 9.36492 8.62549C9.36492 8.62549 9.15025 8.78416 8.93558 9.05616C8.72092 9.32816 8.71825 9.42816 8.51825 9.62949C8.38892 9.75749 8.31825 9.82949 8.16092 9.93082C8.00358 10.0308 7.81692 10.0015 7.31558 10.3442C6.88625 10.6455 6.65692 10.8908 6.62758 10.8762C6.59958 10.8628 6.45558 10.7455 6.39825 10.7162C6.35558 10.6895 5.52625 10.1308 5.52625 10.1308L5.18225 9.90149L5.02358 9.80016L4.99558 9.74282L4.91158 9.62816C4.91158 9.62816 4.78225 9.47082 4.62492 9.34282C4.4619 9.18516 4.25836 9.07578 4.03692 9.02682C3.79292 8.95616 3.63692 8.91216 3.39425 8.99882C3.25691 9.04385 3.13311 9.12272 3.03425 9.22816C2.89158 9.37082 2.86225 9.48549 2.74758 9.65749C2.63292 9.82949 2.51825 9.98816 2.46092 10.0735C2.40358 10.1602 2.28892 10.3895 2.28892 10.3895C2.28892 10.3895 2.00358 10.8468 1.84625 11.1468C1.65958 11.4762 1.58892 11.6788 1.41692 11.9935C1.14492 12.4948 0.756918 13.0095 0.656918 13.2375L0.544917 13.4962C0.544917 13.4962 0.514251 13.6228 0.500917 13.7095C0.486251 13.7948 0.486251 13.9388 0.471584 13.9962C0.459455 14.0534 0.435375 14.1075 0.400917 14.1548C0.387584 14.1682 0.228917 14.4975 0.171584 14.7122C0.114251 14.9255 -0.0150825 15.6002 0.143584 15.6855C0.300918 15.7722 1.45958 15.2722 1.61692 14.7842C1.71825 14.4695 1.30225 14.3108 1.41692 14.0242C1.45958 13.9242 1.48892 13.9108 1.55958 13.8108C1.67425 13.6242 1.63158 13.2388 1.84625 12.8815C2.00358 12.6242 2.31825 12.2922 2.74758 11.8055C3.01958 11.5055 3.27825 11.0188 3.27825 11.0188C3.27825 11.0188 3.33558 10.8468 3.45158 10.8762C3.57958 10.9042 3.69292 10.8895 3.69292 10.8895L3.75025 10.9335L3.86492 11.0482L4.03692 11.3055C4.03692 11.3055 4.32492 11.7188 4.42358 11.8348C4.52492 11.9495 4.62492 12.0348 4.76892 12.1495C4.92625 12.2922 4.98225 12.3642 5.18225 12.5228C5.46892 12.7508 5.36758 12.8375 4.99558 12.6362C4.84085 12.5576 4.67814 12.496 4.51025 12.4522C4.33958 12.4082 3.69425 12.2362 3.36492 12.1935C3.05025 12.1508 2.99158 12.1655 2.99158 12.1655C2.99158 12.1655 2.83425 12.1495 2.64892 12.2642C2.46225 12.3788 2.36225 12.4642 2.36225 12.4642C2.36225 12.4642 2.14758 12.7082 2.13292 12.7508C2.11958 12.7935 2.01825 12.9642 2.01825 12.9642C2.01825 12.9642 1.95958 13.0522 1.94625 13.1508C1.91692 13.2522 1.93292 13.3522 1.93292 13.3522L1.94625 13.5655L1.96092 13.7655C1.96092 13.7655 2.00492 14.2682 2.10492 14.7695C2.13292 14.9122 2.16225 15.1415 2.16225 15.1415L2.23158 15.6575C2.23158 15.6575 2.27558 16.2028 2.31825 16.3882C2.36092 16.5615 2.39025 16.5748 2.41958 16.6882C2.47692 16.9028 2.37692 17.0028 2.47692 17.2615C2.57692 17.5188 2.66358 17.4882 2.76358 17.6468C2.83558 17.7615 2.86225 17.7895 2.91958 17.9335C2.97692 18.0762 3.16358 18.5508 3.37825 18.8935C3.60758 19.2522 3.90892 19.6948 4.11025 19.6522C4.31025 19.6082 4.45292 19.2948 4.45292 19.2948C4.45292 19.2948 4.68225 18.6775 4.53958 18.0762C4.39558 17.4602 3.73692 17.7495 3.65158 17.3055C3.63825 17.2055 3.65158 17.0482 3.65158 17.0482C3.65158 17.0482 3.63558 16.8602 3.60758 16.8028C3.57825 16.7455 3.34892 16.3175 3.26358 15.9588C3.19158 15.6868 3.20625 14.8122 3.14892 14.5682C2.99158 13.9388 2.97692 13.9948 3.06225 13.8815C3.16358 13.7668 3.25025 13.7948 3.25025 13.7948L3.37825 13.8108L3.47958 13.8522L3.66492 13.9668C3.72225 14.0095 3.92225 14.1668 3.92225 14.1668L4.40892 14.4828C4.40892 14.4828 4.68225 14.6415 4.79692 14.6988C4.91158 14.7562 5.01025 14.8268 5.01025 14.8268L5.13825 14.9122L5.35425 15.0722L5.39558 15.1122L5.42492 15.1695C5.42492 15.1695 5.52625 15.4002 5.95558 15.6442C6.29958 15.8442 6.60092 15.7855 6.72892 15.9442C6.75825 15.9722 6.99958 16.3042 7.11558 16.5042C7.25825 16.7322 7.43025 17.0028 7.48758 17.0895C7.54492 17.1748 7.90358 17.6175 7.90358 17.6175L8.37558 18.1335L8.99292 18.7068L9.55025 19.1802L9.90625 19.4668C9.90625 19.4668 10.2223 19.7682 10.5809 20.0108C10.9249 20.2402 10.9383 20.2682 11.1676 20.4242C11.3383 20.5402 11.5676 20.6988 11.7969 20.8708C12.0263 21.0575 12.2849 21.3988 12.1849 21.5135C12.1129 21.5562 11.9836 21.3722 11.7396 21.1575C11.5805 21.0145 11.4136 20.8805 11.2396 20.7562C10.9823 20.5562 10.8516 20.4535 10.5649 20.2815C10.4223 20.1962 10.1649 20.0402 10.1516 20.0682C10.0516 20.3695 10.0636 20.6548 10.0783 21.0268C10.0916 21.2842 10.1356 21.5415 10.2209 21.8708C10.2929 22.1855 10.3649 22.3588 10.4796 22.6588C10.5943 22.9602 10.8103 23.4322 10.8103 23.4322L11.1383 24.0922L11.4396 24.5922L11.5969 24.8495L11.6543 24.9348C11.6543 24.9348 11.7249 25.1082 11.6543 25.2215C11.5836 25.3348 11.4956 25.5802 11.3676 25.5948C11.2383 25.6228 10.9383 25.6388 10.9383 25.6388L9.23425 25.6095L8.34625 25.5375C8.34625 25.5375 8.24758 25.4802 7.73292 25.4802C7.43158 25.4802 7.18758 25.6082 7.01558 25.6228C6.87292 25.6362 6.17025 25.5802 5.69825 25.7655C5.25425 25.9522 5.05292 25.9948 4.89558 26.2815C4.78092 26.4962 5.45558 26.8415 6.01292 26.9695C6.91558 27.1695 6.65692 26.7828 6.99958 26.5402C7.04358 26.5108 7.05825 26.4842 7.10225 26.4695C7.33025 26.3975 7.45825 26.5815 7.68892 26.5815C7.94492 26.5815 8.08892 26.4962 8.34625 26.4535C9.64892 26.2815 11.6823 26.8962 11.6823 26.8962C11.6823 26.8962 12.1849 27.0535 12.4143 27.0108C12.6863 26.9535 12.6276 26.8535 12.7129 26.6962C12.7849 26.5668 12.7569 26.5402 12.7703 26.3962C12.7703 26.3108 12.7569 26.2682 12.7423 26.1828C12.6849 25.9388 12.5289 25.5948 12.5289 25.5948C12.5289 25.5948 12.4129 25.3375 12.3689 25.2082C12.3129 25.0228 12.2556 24.9068 12.2263 24.7068C12.1409 24.1762 12.1556 24.2202 12.1556 23.9202C12.1556 23.3762 12.2129 23.0748 12.3556 22.5455C12.5716 21.7722 12.9729 21.4428 13.2729 20.6988C13.3596 20.4988 13.3583 20.2122 13.4596 20.1828C13.5729 20.1695 13.5596 20.5415 13.5023 20.7562C13.3156 21.5002 12.8583 21.8148 12.6436 22.5735C12.4863 23.1602 12.3996 23.5028 12.4436 24.1042C12.4569 24.4335 12.5863 24.9508 12.5863 24.9508C12.5863 24.9508 12.7583 25.5228 12.8436 25.7375C12.9303 25.9522 13.1009 26.3108 13.1009 26.3108L13.4876 26.9975L13.6876 27.3255C13.6876 27.3255 13.8289 27.4548 13.7583 27.6695C13.6863 27.8842 13.5449 28.0162 13.3716 28.2015C12.8863 28.7748 11.7556 29.6175 11.4689 29.8175C11.0689 30.1188 11.0809 30.2055 11.0516 30.2922C10.8943 30.7508 10.4356 30.7642 9.93558 31.3082C9.82092 31.4228 9.52092 31.7362 9.57825 32.0082C9.60625 32.1082 10.8383 32.3242 11.5543 32.0242C12.1143 31.7802 11.6263 31.5068 11.7836 31.2348C11.8983 31.0348 12.1836 31.0348 12.3129 30.8615C12.5263 30.5762 12.3836 30.5908 12.5703 30.3628C13.1863 29.6175 13.5876 29.1895 14.6903 28.5162C14.7903 28.4588 14.9769 28.3735 14.9769 28.3735C14.9769 28.3735 15.1329 28.3002 15.1903 28.2135C15.2623 28.0988 15.2476 28.0002 15.2476 27.8708C15.2476 27.7842 15.2343 27.7428 15.2343 27.6575C15.2343 27.5562 15.2476 27.4988 15.2183 27.3988C15.1903 27.2415 15.0916 27.1122 15.0343 27.0255C14.9229 26.8888 14.8485 26.7258 14.8183 26.5522C14.7402 26.2884 14.7557 26.0058 14.8623 25.7522C14.9769 25.4522 15.2343 25.2095 15.2343 25.2095L15.8769 24.7788C15.8769 24.7788 16.4369 24.3775 16.6103 24.2188C16.7956 24.0615 17.1529 23.7322 17.4103 23.3602C17.7116 22.9455 17.8689 22.6868 17.9969 22.1868C18.0396 22.0002 18.0836 21.7148 18.0836 21.7148C18.0836 21.7148 18.0836 21.5148 18.1983 21.5015C18.3116 21.4868 18.3409 21.5282 18.3409 21.5282C18.3409 21.5282 18.4396 21.5842 18.4689 21.8708C18.4823 22.1575 18.3983 22.4882 18.3983 22.4882C18.3983 22.4882 18.3116 22.8162 18.2836 23.0162C18.2703 23.1455 18.2676 23.2162 18.2676 23.3602C18.2676 23.6042 18.3689 23.8055 18.3689 23.8055C18.3689 23.8055 18.4263 23.8482 18.4263 23.7482C18.4339 23.5931 18.4585 23.4393 18.4996 23.2895C18.5423 23.1468 18.5703 23.1735 18.6556 22.9295C18.7703 22.6148 18.6689 22.6455 18.7263 22.4588C18.7556 22.3735 18.8276 22.2868 18.9129 22.2868C18.9996 22.2868 19.0129 22.4015 19.0129 22.4015C19.0129 22.4015 19.0996 22.7748 19.0289 23.1175C18.9569 23.4615 18.6983 23.9335 18.6983 23.9335L18.4996 24.2762C18.4996 24.2762 18.3569 24.5202 18.2996 24.6775C18.2423 24.8495 18.2263 24.9215 18.2556 25.0775C18.2983 25.2508 18.4289 25.4815 18.4996 25.4375C18.5569 25.3948 18.4143 25.2508 18.5863 24.9068C18.7583 24.5628 18.9836 24.3495 18.9836 24.3495C18.9836 24.3495 19.2996 23.9762 19.4423 23.6908C19.5716 23.4335 19.7009 23.0162 19.7009 23.0162C19.7009 23.0162 19.8023 22.6428 19.7729 22.3282C19.7596 22.0282 19.7009 21.8708 19.7009 21.8708L19.5729 21.6415L19.4996 21.4722L19.5289 21.3708C19.5569 21.3562 19.6583 21.4282 19.7449 21.5428C19.8493 21.6774 19.9222 21.8337 19.9583 22.0002C19.9973 22.1303 20.0167 22.2656 20.0156 22.4015C20.0156 22.5162 19.9743 22.9882 20.1449 23.2895C20.2169 23.4335 20.3889 23.7615 20.4036 23.6175C20.4316 23.2882 20.2876 23.1322 20.3023 22.8308C20.3156 22.4882 20.4036 22.5735 20.4316 22.4015C20.4609 22.2148 20.5023 22.1708 20.4743 21.9282C20.4454 21.7487 20.4026 21.5717 20.3463 21.3988L20.2449 21.1695L20.2023 21.0842C20.2023 21.0842 20.2303 21.0428 20.2729 21.0428L20.6169 20.9282C20.6169 20.9282 21.0623 20.7282 21.2343 20.5842C21.4209 20.4548 21.6343 20.2242 21.6343 20.2242C21.6343 20.2242 21.9209 19.8682 22.0649 19.6108C22.4089 18.9655 22.4076 18.1495 22.3929 17.7762C22.3796 17.4188 22.2783 16.9455 22.2783 16.9455C22.2783 16.9455 22.1636 16.3722 22.1929 16.0002C22.2209 15.6282 22.2503 15.4562 22.2503 15.4562C22.2503 15.4562 22.2369 15.0842 22.5516 14.6828C22.8663 14.2828 23.0076 14.0255 23.0649 13.7242C23.1223 13.4668 23.0356 13.0522 22.9209 13.2095C22.7929 13.3815 22.7383 13.7255 22.5516 14.0108C22.2943 14.4122 21.9196 14.8988 21.7343 14.8988C21.6343 14.8988 21.6063 14.6695 21.6063 14.6695C21.6063 14.6695 21.4783 14.2828 21.6929 13.7948C21.8503 13.4508 21.9343 13.3522 22.1356 13.0948C22.3223 12.8508 22.4356 12.7215 22.5649 12.4642C22.6796 12.2348 22.7063 12.1922 22.7783 11.8348C22.7916 11.7482 22.7649 11.5628 22.6796 11.5762C22.5649 11.5762 22.2503 12.2655 21.9209 12.6522C21.6063 13.0095 21.0183 13.4668 21.0183 13.4668C21.0183 13.4668 20.9609 13.5082 20.9609 13.3935C20.9476 13.2935 20.9316 12.9935 20.9889 12.7228C21.0608 12.3825 21.1922 12.0575 21.3769 11.7628C21.6489 11.2908 21.9916 10.9628 22.1636 10.7895C22.2356 10.7188 22.4503 10.5882 22.3369 10.5162C22.2356 10.4588 21.9343 10.7162 21.7049 10.8895C21.4196 11.1028 21.3196 11.1628 21.0343 11.5068C20.7476 11.8495 20.6743 11.9935 20.6743 11.9935C20.6743 11.9935 20.4023 12.4362 20.3303 12.8655C20.2583 13.2948 20.2596 13.5375 20.2596 13.5375C20.2596 13.5375 20.2596 13.9255 20.3023 14.1548C20.3303 14.3975 20.4316 14.7682 20.4316 14.7682C20.4316 14.7682 20.5756 15.1855 20.6316 15.4442C20.6903 15.7015 20.7889 16.4588 20.7889 16.4588C20.7889 16.4588 20.8609 17.0042 20.8169 17.5188C20.7743 18.0348 20.7316 18.3348 20.6743 18.4922C20.6169 18.6508 20.4609 19.0655 20.2023 19.3522C19.9596 19.6242 19.9009 19.6668 19.9009 19.6668C19.9009 19.6668 19.6436 19.8802 19.4289 19.9948C19.2123 20.1122 18.9872 20.2134 18.7556 20.2975C18.6374 20.3185 18.5181 20.3323 18.3983 20.3388H18.2129L18.1556 20.2988L18.1249 20.1828C18.1249 20.1828 17.9836 19.6242 17.8129 19.2668C17.6689 18.9655 17.3676 18.5508 17.3676 18.5508C17.3676 18.5508 16.8516 17.8482 16.4503 17.4615C15.9916 17.0042 15.4769 16.6615 15.1609 16.4175C15.0463 16.3322 14.7889 16.1722 14.7889 16.1722C14.7889 16.1722 13.7449 15.1282 13.3729 14.2975C13.1143 13.7242 12.9436 13.3108 13.0156 12.6802C13.0289 12.5375 13.0863 12.2642 13.1143 12.2642L13.3009 12.3215C13.3169 12.3348 13.4876 12.4935 13.6463 12.5508C13.7316 12.5788 13.8876 12.6082 13.8876 12.6082C13.8876 12.6082 14.0169 12.6215 14.0876 12.6362C14.1596 12.6655 14.2889 12.7082 14.3743 12.7508C14.4609 12.7935 14.5876 12.8815 14.5876 12.8815L14.8329 13.0655L15.0916 13.2655C15.0916 13.2655 15.2329 13.3668 15.2756 13.3815C15.3183 13.3948 15.3476 13.4095 15.3623 13.4095H15.4196C15.4196 13.4095 15.4783 13.3935 15.4916 13.3362C15.5063 13.2655 15.4209 13.3228 15.2916 13.1802C15.2118 13.1116 15.1441 13.03 15.0916 12.9388C15.0916 12.9388 15.0623 12.8228 14.9476 12.6935C14.8329 12.5642 14.6903 12.4508 14.6903 12.4508C14.6903 12.4508 14.5889 12.3802 14.4449 12.3362C14.3023 12.2935 14.2583 12.2922 14.2449 12.2348C14.2316 12.1775 14.4169 12.2068 14.4169 12.2068C14.4169 12.2068 14.6329 12.2348 14.8036 12.3215C14.9769 12.4068 15.0756 12.5082 15.0756 12.5082L15.1903 12.6082L15.2636 12.6802L15.3329 12.7228C15.3329 12.7228 15.4049 12.7935 15.4196 12.6935C15.4329 12.6082 15.4049 12.5362 15.3903 12.5215L15.3196 12.4508L15.0343 12.2068C14.9651 12.1322 14.8882 12.0652 14.8049 12.0068C14.6891 11.9252 14.5637 11.858 14.4316 11.8068C14.2889 11.7482 14.2036 11.7628 14.0596 11.6908C13.9596 11.6482 13.8729 11.6202 13.8156 11.5348C13.8009 11.5215 13.7303 11.4615 13.8596 11.4908C13.9876 11.5188 14.0729 11.5628 14.2156 11.5922C14.4449 11.6495 14.5889 11.6482 14.8049 11.7202C14.8903 11.7482 15.0049 11.8055 15.0049 11.8055L15.2756 11.9202C15.2756 11.9202 15.6489 12.1215 15.9063 12.1362C16.097 12.1509 16.2886 12.1217 16.4663 12.0508C16.5702 12.0082 16.6669 11.9498 16.7529 11.8775C16.7792 11.8518 16.8025 11.8232 16.8223 11.7922L16.8516 11.7202V11.6628C16.7796 11.5762 16.6383 11.8068 16.4089 11.8495C16.1649 11.8935 16.1783 11.9202 16.0209 11.8922C15.8678 11.8761 15.7256 11.805 15.6209 11.6922C15.3903 11.4762 15.3063 11.2762 15.0049 11.1468C14.8769 11.0895 14.6449 11.0322 14.6449 11.0322C14.6449 11.0322 14.3303 10.9322 14.1583 10.8322C14.0303 10.7602 13.7609 10.7175 13.8463 10.6028C13.8889 10.5455 14.2329 10.7455 14.4889 10.7748C14.6756 10.8028 14.8049 10.7895 14.9476 10.7895C15.0903 10.7895 15.2916 10.7455 15.3209 10.7455C15.3489 10.7322 15.4623 10.7455 15.5623 10.7748C15.6623 10.8028 15.7196 10.8455 15.8196 10.8895C15.9209 10.9322 16.0369 11.0042 16.0649 11.0042L16.1223 11.0188L16.1516 10.9908L16.1649 10.9615L16.1516 10.9335L16.1063 10.9042L16.0209 10.8468C16.0209 10.8468 15.8929 10.7748 15.7783 10.6602C15.6636 10.5455 15.5623 10.4175 15.3916 10.3602C15.2183 10.3028 15.0183 10.2748 15.0183 10.2748L14.8183 10.2588L14.7316 10.2455C14.7316 10.2455 14.5889 10.2015 14.7036 10.1735C14.7689 10.1535 14.8358 10.1393 14.9036 10.1308C15.0132 10.1071 15.127 10.1117 15.2343 10.1442C15.3489 10.1868 15.5356 10.2868 15.5489 10.2868C15.5636 10.3015 15.7356 10.4322 15.9223 10.4748C16.1089 10.5175 16.3516 10.5322 16.3516 10.5322L16.4663 10.5042L16.5236 10.4882L16.5649 10.4588L16.5516 10.3895C16.5516 10.3895 16.5516 10.3308 16.4663 10.3162C16.3165 10.2988 16.1733 10.2452 16.0489 10.1602C15.8916 10.0455 15.7783 9.93082 15.7783 9.93082C15.7783 9.93082 15.6636 9.82949 15.4343 9.77082C15.2209 9.71482 15.1489 9.71482 15.1489 9.71482L15.0756 9.68549L14.9196 9.61616C14.9196 9.61616 14.8463 9.57216 14.7889 9.50149C14.7316 9.42949 14.6476 9.29882 14.8903 9.37082C15.1343 9.44282 15.1903 9.48549 15.1903 9.48549C15.1903 9.48549 15.3196 9.61482 15.4343 9.62816C15.5063 9.64282 15.5636 9.65749 15.6076 9.60016C15.6783 9.52816 15.4769 9.44282 15.3329 9.34149C15.2417 9.27015 15.164 9.18298 15.1036 9.08416C15.1036 9.08416 15.0196 9.01349 15.1489 9.04282C15.2769 9.07082 15.5049 9.21482 15.5049 9.21482C15.5049 9.21482 15.6196 9.27082 15.6783 9.28549C15.7196 9.29882 15.8356 9.37082 15.8929 9.39882C15.9356 9.41349 16.0663 9.44282 16.1503 9.48549C16.2649 9.55749 16.3236 9.67216 16.3796 9.71482C16.4369 9.75749 16.4809 9.83082 16.5529 9.84416C16.6236 9.85882 16.6369 9.88682 16.6796 9.85749C16.6996 9.84494 16.7187 9.83113 16.7369 9.81616C16.7369 9.81616 16.7503 9.78549 16.6796 9.74282C16.6089 9.70016 16.5236 9.58682 16.5236 9.58682L16.4943 9.52949L16.4796 9.47216L16.4089 9.35749L16.2783 9.17082C16.2783 9.17082 16.0783 8.89882 15.8929 8.79749C15.7209 8.69749 15.5916 8.64149 15.5916 8.64149C15.5916 8.64149 15.5063 8.60016 15.4636 8.57082C15.3916 8.51349 15.3623 8.46816 15.3036 8.39749C15.2329 8.31082 15.2063 8.25616 15.1196 8.17082C14.9623 8.01349 14.4756 7.92549 14.6609 7.81082C14.7623 7.75349 14.8903 7.78416 14.9476 7.79749C15.0049 7.81216 15.1343 7.86682 15.2636 7.90949C15.3489 7.93882 15.4063 7.94149 15.4916 7.96949C15.5783 7.99882 15.6783 8.01082 15.7209 8.04016C15.7636 8.06816 15.8076 8.12682 15.8356 8.14149C15.8503 8.15482 15.9636 8.34149 16.1636 8.44149C16.3636 8.54149 16.4663 8.61216 16.6663 8.62549C16.8236 8.64016 17.0796 8.58549 17.0796 8.58549C17.0796 8.58549 17.1529 8.55482 17.0956 8.48282C17.0249 8.41082 17.0236 8.39749 16.9663 8.38416C16.7369 8.29749 16.5529 8.32682 16.3796 8.15482C16.3089 8.08282 16.2783 8.06816 16.2209 7.95482C16.1636 7.84016 16.1943 7.81216 16.1516 7.74149C16.1223 7.66949 16.0489 7.56816 16.0489 7.56816C16.0489 7.56816 15.8356 7.30949 15.6063 7.18149C15.4485 7.1013 15.2992 7.00525 15.1609 6.89482C15.1183 6.86549 15.0343 6.75082 15.0343 6.75082L14.9609 6.63616L14.9196 6.55082C14.8903 6.39349 15.1756 6.59482 15.3329 6.65216C15.5916 6.73749 15.7209 6.85216 15.9796 6.93882C16.1223 6.98149 16.2089 6.98016 16.3516 7.03749C16.5943 7.13749 16.6663 7.38149 16.9249 7.41082C17.0676 7.42416 17.3543 7.48149 17.2969 7.35216C17.2396 7.20949 16.9529 7.20949 16.8103 7.03749C16.7383 6.96549 16.7383 6.89616 16.6663 6.82416C16.5516 6.68016 16.2796 6.55082 16.2796 6.55082C16.2796 6.55082 16.1943 6.48016 16.0929 6.28016C16.0076 6.08016 15.7929 5.93349 15.4063 5.74816C15.1489 5.62016 14.6329 5.59082 14.8329 5.46149C14.9476 5.37616 15.0476 5.39082 15.2063 5.43349C15.3636 5.49082 15.4196 5.56416 15.5489 5.62016C15.6783 5.67882 15.7356 5.69216 15.7623 5.70682C15.7916 5.72016 15.8916 5.76416 15.9356 5.76416C15.9623 5.77749 16.1796 5.80682 16.2369 5.82149L16.5236 5.89216L16.7529 5.97749C16.7529 5.97749 16.8663 6.02149 16.9369 6.02149C17.0076 6.02149 17.1249 5.99349 17.1249 5.99349L17.2103 5.93616L17.2236 5.90682C17.2236 5.90682 17.2676 5.83616 17.1529 5.82149C17.0964 5.81245 17.0394 5.80711 16.9823 5.80549L16.8796 5.77749L16.8396 5.76416C16.8396 5.76416 16.6383 5.60682 16.4663 5.53482C16.3937 5.50768 16.3217 5.47923 16.2503 5.44949L16.1796 5.43349L16.0943 5.42016C16.0943 5.42016 16.0209 5.42016 15.9063 5.31882C15.7916 5.21882 15.7489 5.16149 15.6489 5.06149L15.5209 4.93349C15.5209 4.93349 15.4063 4.84549 15.4063 4.77349C15.4196 4.66016 15.6636 4.90416 15.6636 4.90416L15.8369 5.01882C15.8369 5.01882 15.9796 5.12016 16.2369 5.13349C16.4943 5.14816 16.8103 5.06149 16.8103 5.06149C16.8103 5.06149 16.8516 5.03482 16.9943 5.07616C17.1369 5.11749 17.2529 5.20416 17.2529 5.20416L17.3676 5.30549L17.5396 5.49082L17.5676 5.47749C17.5809 5.46416 17.6543 5.39082 17.5263 5.23349C17.3969 5.07482 17.1823 4.93349 17.1823 4.93349C17.1823 4.93349 16.8956 4.76149 16.6089 4.70416C16.3236 4.64682 16.1929 4.64682 16.1929 4.64682C16.1929 4.64682 15.9783 4.64682 15.8489 4.50416C15.7196 4.36016 15.6356 4.21749 15.6356 4.21749L15.5916 4.01749C15.5916 4.01749 15.5209 3.93082 15.3783 3.87349C15.2489 3.81616 15.1036 3.73082 15.1036 3.73082C15.1036 3.73082 14.8903 3.65882 14.8743 3.55749C14.8316 3.37216 15.2343 3.55749 15.4476 3.60016C15.6476 3.64282 15.7343 3.71616 15.9343 3.76016C16.0832 3.80248 16.2389 3.81605 16.3929 3.80016C16.4929 3.80016 16.5503 3.78949 16.6503 3.77349C16.7516 3.77349 16.8236 3.76016 16.9249 3.77349C17.0676 3.80282 17.1249 3.87349 17.2676 3.93082C17.3543 3.97349 17.3969 4.01482 17.4969 4.02949C17.5836 4.04416 17.7556 4.10282 17.7263 4.01616L17.6823 3.95882C17.6103 3.85882 17.5263 3.85882 17.4396 3.78816C17.2529 3.64416 17.1676 3.53082 16.9529 3.43082C16.8321 3.36625 16.7015 3.3221 16.5663 3.30016C16.4503 3.28682 16.3649 3.31616 16.2503 3.28682C16.1209 3.24416 16.0796 3.18682 15.9503 3.11616C15.7503 3.00149 15.6343 2.90016 15.4196 2.81349C15.293 2.76797 15.1639 2.72969 15.0329 2.69882L14.9316 2.68549L14.8916 2.67082C14.6903 2.59882 15.2476 2.44282 15.5049 2.37082C15.6343 2.34282 15.6916 2.31216 15.8196 2.32682C15.9343 2.34016 16.0636 2.50016 16.1929 2.42816C16.3796 2.32816 15.9783 2.05482 15.8489 2.01216C15.6769 1.94016 15.3769 1.99882 15.3769 1.99882L14.7183 1.98282L14.5316 1.95482C14.5316 1.95482 14.4169 1.95482 14.3316 1.85482C14.2449 1.75482 13.9169 1.35216 13.5449 1.29482C13.1583 1.23749 13.0436 1.29482 13.0156 1.26816C12.6863 0.750824 12.3409 0.63749 12.0823 0.394824C12.0116 0.322824 11.8983 0.164157 11.8689 0.178824L11.8703 0.17749ZM13.4343 1.69749C13.4569 1.6964 13.4796 1.6964 13.5023 1.69749L13.5729 1.74149C13.6316 1.79949 13.6798 1.86714 13.7156 1.94149C13.7303 1.99882 13.5449 1.92816 13.4743 1.91216C13.4016 1.89187 13.3336 1.85743 13.2743 1.81082C13.2743 1.81082 13.2436 1.76816 13.3143 1.72549C13.3514 1.70631 13.3925 1.69759 13.4343 1.69749ZM13.7703 2.40416C13.8049 2.40416 13.8303 2.41216 13.8303 2.41216L13.9009 2.45749C13.9596 2.51546 14.0079 2.58312 14.0436 2.65749C14.0583 2.71482 13.8729 2.64416 13.8023 2.62816C13.7296 2.60787 13.6616 2.57343 13.6023 2.52682C13.6023 2.52682 13.5729 2.48416 13.6596 2.44149C13.6914 2.41738 13.7304 2.4047 13.7703 2.40549V2.40416ZM11.2609 2.42282C11.2966 2.42101 11.3323 2.4228 11.3676 2.42816C11.3676 2.42816 11.4249 2.42816 11.5103 2.46949C11.5969 2.52682 11.6543 2.69882 11.6543 2.69882C11.6543 2.69882 11.6676 2.72816 11.5969 2.72816C11.5529 2.72816 11.5529 2.65749 11.5103 2.62816C11.4529 2.58549 11.4103 2.57082 11.3383 2.54282C11.2676 2.51482 11.1676 2.55616 11.1543 2.48549C11.1543 2.44282 11.2076 2.42682 11.2609 2.42282ZM10.1356 2.58949C10.1916 2.57349 10.1356 2.68549 10.1356 2.68549C10.1356 2.68549 9.95025 2.98549 9.69292 3.10016C9.43558 3.21482 9.26358 3.27349 8.77558 3.31616C8.70492 3.31616 8.73558 3.27216 8.73558 3.27216C8.73558 3.27216 9.29158 3.11616 9.60758 2.94416C9.75831 2.86052 9.9019 2.76464 10.0369 2.65749C10.0655 2.62953 10.099 2.60561 10.1356 2.58949ZM11.1383 2.66949C11.1383 2.66949 11.2249 2.67216 11.3249 2.74282C11.4263 2.81482 11.5116 3.05882 11.5116 3.05882C11.5116 3.05882 11.5409 3.21482 11.4689 3.27216C11.3969 3.32949 11.2823 3.23082 11.2236 3.14416C11.1725 3.07192 11.0965 3.02111 11.0103 3.00149C10.8956 2.95882 10.7236 3.08682 10.6956 3.00149C10.6956 2.97216 10.7089 2.90016 10.7089 2.90016C10.7089 2.90016 10.7383 2.81482 10.8676 2.74416C10.9823 2.67216 11.1383 2.67082 11.1383 2.67082V2.66949ZM13.8023 3.22282C13.8596 3.22816 13.9396 3.27216 14.0023 3.27216C14.1889 3.27216 14.3449 3.27216 14.4743 3.30016C14.5889 3.32949 14.6169 3.40016 14.5596 3.40016C14.5179 3.4113 14.4747 3.41624 14.4316 3.41482C14.3036 3.41482 14.3169 3.35749 14.1463 3.44416C13.9729 3.52949 14.1023 3.48816 13.8596 3.57349C13.6303 3.66016 13.6863 3.43082 13.6863 3.43082C13.6863 3.43082 13.7036 3.38682 13.7316 3.27082C13.7423 3.22949 13.7676 3.21882 13.8023 3.22282ZM7.34358 3.88682C7.43025 3.88682 7.58892 3.94549 7.58892 4.07349C7.60225 4.20282 7.50092 4.14549 7.42892 4.18816C7.38758 4.21749 7.35958 4.23216 7.30225 4.27482C7.23025 4.33216 7.15825 4.47482 7.11558 4.43082C7.05692 4.38816 7.08625 4.23082 7.08625 4.23082C7.08625 4.23082 7.13025 4.11616 7.18758 4.00149C7.25958 3.88682 7.34358 3.88682 7.34358 3.88682ZM14.1929 4.03482C14.2155 4.03589 14.2378 4.03947 14.2596 4.04549C14.2596 4.04549 14.3023 4.05882 14.3303 4.08682C14.3596 4.11616 14.4743 4.21749 14.4743 4.27349C14.4743 4.31749 14.2889 4.24416 14.2036 4.23082C14.1169 4.21616 14.0036 4.13082 14.0036 4.13082C14.0036 4.13082 13.9743 4.10416 14.0596 4.06149C14.1012 4.04178 14.147 4.03262 14.1929 4.03482ZM11.6663 4.15216C11.6796 4.15216 11.6783 4.17216 11.6529 4.21749C11.5969 4.33216 11.4249 4.47482 11.4249 4.47482C11.4249 4.47482 11.2249 4.76016 11.1823 4.80282C10.9956 4.94682 10.7663 4.86149 10.6663 4.87616C10.5809 4.88949 10.6383 4.80282 10.6383 4.80282C10.6383 4.80282 10.8823 4.70416 11.0383 4.61882C11.2489 4.51349 11.6076 4.15216 11.6663 4.15216ZM8.72225 4.40416C8.75292 4.40416 8.77692 4.41749 8.77692 4.46149C8.79158 4.56149 8.60625 4.63216 8.60625 4.63216C8.60625 4.63216 8.55025 4.64682 8.53558 4.54682C8.52225 4.44682 8.60625 4.43216 8.60625 4.43216C8.60625 4.43216 8.67292 4.40016 8.72225 4.40416ZM12.2689 4.56016C12.2929 4.54682 12.2729 4.68949 12.2729 4.68949C12.2729 4.68949 12.2289 4.87749 12.1289 4.93482C12.0009 5.00682 11.6836 5.09216 11.6556 5.04949C11.6556 5.02016 12.0703 4.88949 12.2556 4.57616C12.2587 4.56986 12.2633 4.56438 12.2689 4.56016ZM14.2076 4.61216C14.2309 4.61228 14.2542 4.61496 14.2769 4.62016C14.2769 4.62016 14.3169 4.63349 14.3609 4.66016C14.4036 4.70416 14.5049 4.82016 14.5196 4.87749C14.5329 4.93482 14.3329 4.86416 14.2329 4.84949C14.1476 4.83482 14.0169 4.73482 14.0169 4.73482C14.0169 4.73482 13.9903 4.69082 14.0769 4.64816C14.116 4.62349 14.1614 4.61096 14.2076 4.61216ZM12.4729 4.93749C12.4996 4.92949 12.4569 5.04949 12.4569 5.04949C12.4569 5.04949 12.3996 5.23616 12.2849 5.27882C12.1423 5.32149 11.5996 5.33482 11.5849 5.29216C11.5716 5.24816 12.2143 5.19082 12.4569 4.94816C12.4611 4.94316 12.4667 4.93947 12.4729 4.93749ZM14.2516 5.18416C14.2785 5.18413 14.3053 5.18681 14.3316 5.19216C14.3316 5.19216 14.3756 5.20549 14.4183 5.23482C14.4609 5.27749 14.5756 5.40816 14.5903 5.47882C14.6036 5.56549 14.3903 5.47882 14.2903 5.45082C14.2007 5.42378 14.1173 5.37938 14.0449 5.32016C14.0449 5.32016 14.0169 5.27882 14.1023 5.22149C14.1475 5.19514 14.1993 5.18219 14.2516 5.18416ZM14.2516 5.90016C14.2785 5.90013 14.3053 5.90281 14.3316 5.90816C14.3316 5.90816 14.3756 5.92149 14.4183 5.95082C14.4609 5.99349 14.5756 6.12416 14.5903 6.19482C14.6036 6.26682 14.3903 6.18016 14.2903 6.15082C14.2008 6.12491 14.1174 6.08139 14.0449 6.02282C14.0449 6.02282 14.0169 5.99482 14.1023 5.93749C14.1476 5.9116 14.1994 5.89912 14.2516 5.90149V5.90016ZM12.1609 6.58549C12.2716 6.61749 12.1703 7.42416 11.9569 7.79882C11.6821 8.2588 11.3496 8.68178 10.9676 9.05749C10.7676 9.20016 10.8969 8.94282 10.8969 8.94282C10.8969 8.94282 11.4543 8.17082 11.7129 7.62682C11.8996 7.24016 12.0143 6.72549 12.0996 6.62416C12.1263 6.59482 12.1449 6.58149 12.1609 6.58549ZM14.2276 6.59616C14.2587 6.59717 14.2895 6.60164 14.3196 6.60949C14.3196 6.60949 14.3756 6.62282 14.4183 6.66682C14.4609 6.70949 14.6049 6.86816 14.6183 6.94016C14.6183 7.02549 14.3756 6.90949 14.2623 6.89616C14.1627 6.86815 14.0704 6.81903 13.9916 6.75216C13.9916 6.75216 13.9609 6.69482 14.0609 6.63749C14.1106 6.60625 14.169 6.59177 14.2276 6.59616ZM14.1369 7.28949C14.1637 7.28902 14.1905 7.29126 14.2169 7.29616C14.2169 7.29616 14.2609 7.31216 14.3036 7.34149C14.3463 7.38416 14.4609 7.51216 14.4756 7.58282C14.4889 7.65482 14.2756 7.56949 14.1756 7.55482C14.0871 7.52855 14.0046 7.48505 13.9329 7.42682C13.9329 7.42682 13.9063 7.38282 13.9903 7.32549C14.0347 7.29968 14.0856 7.28718 14.1369 7.28949ZM14.0956 7.91082C14.1169 7.90976 14.1383 7.90976 14.1596 7.91082L14.2329 7.95482C14.292 8.01275 14.3407 8.0804 14.3769 8.15482C14.3769 8.21349 14.2036 8.14149 14.1183 8.12816C14.0329 8.11349 13.9183 8.02816 13.9183 8.02816C13.9183 8.02816 13.8889 7.98549 13.9756 7.94282C14.0125 7.92286 14.0536 7.9119 14.0956 7.91082ZM14.0169 8.52016C14.0371 8.5214 14.0571 8.52407 14.0769 8.52816L14.1343 8.55749C14.1623 8.58549 14.2463 8.67082 14.2463 8.71349C14.2463 8.77082 14.0903 8.70016 14.0329 8.70016C13.9755 8.68298 13.9223 8.65391 13.8769 8.61482C13.8769 8.61482 13.8609 8.58416 13.9169 8.54149C13.9463 8.52016 13.9836 8.51882 14.0169 8.52016ZM13.8969 9.08282C13.9134 9.08273 13.9299 9.08362 13.9463 9.08549L14.0036 9.11482C14.0329 9.14282 14.1023 9.21482 14.1023 9.25749C14.0889 9.28682 13.9596 9.22949 13.9023 9.22949C13.8519 9.21203 13.804 9.18829 13.7596 9.15882C13.7596 9.15882 13.7463 9.12949 13.8036 9.10149C13.833 9.08853 13.8648 9.08216 13.8969 9.08282ZM3.75158 9.35882C3.90892 9.38816 3.93825 9.40149 3.92358 9.47349C3.93692 9.54549 3.73825 9.54416 3.73825 9.54416C3.73825 9.54416 3.45025 9.60282 3.49425 9.50282C3.55158 9.40149 3.75158 9.35882 3.75158 9.35882ZM13.7663 9.52549C13.7956 9.52549 13.8196 9.53082 13.8196 9.53082L13.8769 9.56016C13.9049 9.58816 13.9756 9.66016 13.9756 9.70282C13.9609 9.74549 13.8316 9.68949 13.7756 9.67482C13.7169 9.66016 13.6316 9.60149 13.6316 9.60149C13.6316 9.60149 13.6183 9.57216 13.6756 9.54416C13.704 9.5312 13.735 9.52482 13.7663 9.52549ZM13.6063 10.0282C13.6196 10.0281 13.633 10.029 13.6463 10.0308L13.6889 10.0602C13.7023 10.0735 13.7743 10.1455 13.7743 10.1748C13.7743 10.2175 13.6729 10.1748 13.6156 10.1615C13.5729 10.1482 13.5036 10.1042 13.5036 10.1042C13.5036 10.1042 13.4903 10.0748 13.5329 10.0468C13.5547 10.0339 13.581 10.0274 13.6063 10.0282ZM9.52492 10.1882C9.60603 10.1881 9.68707 10.193 9.76758 10.2028C10.1676 10.2602 10.5543 10.6188 10.4956 10.6615C10.4383 10.7042 10.3529 10.6615 10.3236 10.6615L10.1809 10.5908L9.96492 10.5335C9.96492 10.5335 9.57825 10.4468 9.29292 10.4602C9.00625 10.4748 8.74892 10.5748 8.74892 10.5748C8.74892 10.5748 8.63425 10.6335 8.60625 10.5615C8.59158 10.4762 8.65025 10.4322 8.65025 10.4322L8.66358 10.4028C8.66358 10.4028 8.99158 10.1855 9.52492 10.1882ZM2.70758 10.3588C2.71692 10.3588 2.72092 10.3615 2.72092 10.3615L2.74892 10.3908C2.73558 10.3908 2.79158 10.5335 2.66358 10.6762C2.53425 10.8202 2.13425 11.5788 2.04892 11.4495C1.96225 11.3495 2.43558 10.6322 2.53558 10.4895C2.61025 10.3708 2.67825 10.3588 2.70758 10.3588ZM13.4409 10.5148C13.4609 10.5148 13.4756 10.5175 13.4756 10.5175L13.5169 10.5335L13.5903 10.6322C13.5756 10.6748 13.4889 10.6468 13.4463 10.6322C13.4036 10.6322 13.3449 10.5748 13.3449 10.5748C13.3449 10.5748 13.3316 10.5615 13.3743 10.5348C13.3941 10.522 13.4173 10.5151 13.4409 10.5148ZM4.39692 10.9188C4.41958 10.9108 4.43558 10.9295 4.45425 10.9348L4.52492 10.9628L4.56892 11.0055L4.71292 11.1482C4.77025 11.2335 4.92625 11.5215 4.89692 11.5482C4.76892 11.6775 4.72625 11.5055 4.54092 11.2908C4.35425 11.0908 4.39692 10.9188 4.39692 10.9188ZM13.2409 10.9855C13.2523 10.9859 13.2636 10.9881 13.2743 10.9922L13.3169 11.0055L13.3889 11.1068C13.3889 11.1348 13.3023 11.0908 13.2596 11.0908C13.2156 11.0908 13.1596 11.0335 13.1596 11.0335C13.1596 11.0335 13.1303 11.0202 13.1729 11.0055C13.1933 10.9929 13.2169 10.9864 13.2409 10.9868V10.9855ZM6.77558 11.5068C6.82225 11.5108 6.75825 11.5935 6.75825 11.5935C6.75825 11.5935 6.51292 11.9215 6.37025 12.1228C6.18358 12.3935 5.95425 12.8082 5.91158 12.7655C5.86892 12.7228 6.11292 12.2668 6.24225 12.0228C6.38492 11.7228 6.59958 11.5655 6.68492 11.5362C6.71287 11.5206 6.74375 11.5111 6.77558 11.5082V11.5068ZM2.70625 12.5802L2.73425 12.6095C2.73425 12.6095 2.74892 12.6655 2.64892 12.8228C2.54892 12.9802 2.47558 12.9815 2.47558 12.9815C2.47558 12.9682 2.44892 12.9108 2.53425 12.7388C2.61958 12.5668 2.70625 12.5802 2.70625 12.5802ZM0.950251 13.1402C0.95854 13.1424 0.965975 13.147 0.971584 13.1535C1.01425 13.2108 0.886251 13.4682 0.886251 13.4682C0.886251 13.4682 0.756917 13.7388 0.712917 13.6242C0.670251 13.5242 0.758251 13.3388 0.758251 13.3388C0.858251 13.2508 0.902251 13.1308 0.950251 13.1402ZM12.3703 13.5095C12.4983 13.5242 12.4849 13.7682 12.4849 13.8255C12.5276 14.2402 12.7009 14.6575 13.0156 15.1588C13.4596 15.8602 14.1756 16.4042 14.1463 16.4482C14.0743 16.5188 13.3596 15.9602 13.1009 15.6455C12.6716 15.1295 12.3543 14.5708 12.2556 13.8695C12.2263 13.7122 12.2263 13.4815 12.3703 13.5095ZM3.93825 13.7095C3.96625 13.7095 4.09425 13.7548 4.09425 13.7548L4.40892 13.8828C4.42225 13.8828 4.58225 13.9548 4.71158 14.0255L5.02358 14.2255L5.11158 14.2988C5.11158 14.3282 5.21158 14.4855 5.01025 14.4428C4.81025 14.3988 4.38092 14.0695 4.20892 13.9842C4.03558 13.8988 3.75158 13.8695 3.88092 13.7548C3.89425 13.7415 3.90892 13.7095 3.93825 13.7095ZM2.41825 14.5002C2.42794 14.4983 2.4379 14.4983 2.44758 14.5002C2.53425 14.5002 2.53425 14.5695 2.53425 14.5695V14.6135C2.53425 14.6135 2.53292 14.8722 2.54758 15.0722C2.54758 15.1295 2.70625 15.7735 2.70625 15.7735C2.70625 15.7735 2.73425 15.8308 2.67692 15.8308C2.63425 15.8308 2.59158 15.7442 2.59158 15.7442C2.59158 15.7442 2.47558 15.5735 2.43158 15.4455C2.39025 15.3308 2.37558 15.1428 2.37558 15.1428C2.37558 15.1428 2.34625 14.9002 2.34625 14.8148C2.36092 14.7002 2.36092 14.5988 2.37558 14.5415C2.37754 14.5313 2.38252 14.5218 2.38989 14.5145C2.39726 14.5071 2.40801 14.5021 2.41825 14.5002ZM0.431584 14.8428C0.444702 14.8394 0.458466 14.8394 0.471584 14.8428C0.556917 14.8575 0.512917 15.0135 0.512917 15.0855C0.512917 15.1575 0.430251 15.2855 0.400917 15.2855C0.372917 15.2855 0.314251 15.1575 0.328917 15.0855C0.342251 15.0228 0.351584 14.8628 0.431584 14.8428ZM7.68758 16.0335C7.85025 16.0202 8.32092 16.6962 9.00492 17.4335C9.77825 18.2655 10.6796 19.0535 10.7089 19.1535C10.7663 19.3255 10.0783 18.7802 9.70625 18.4948C8.71825 17.7348 7.51558 16.1895 7.65958 16.0468C7.66718 16.0394 7.67703 16.0347 7.68758 16.0335ZM21.3849 16.7308C21.4116 16.7282 21.4343 16.7628 21.4343 16.7628L21.4636 16.8042C21.4636 16.8335 21.6343 17.5055 21.6196 17.9348C21.5903 18.5348 21.5636 18.9655 21.2063 19.4242C20.7756 19.9828 20.0303 20.5575 20.1876 20.0988C20.2876 19.8268 20.9476 19.4828 21.2049 18.7242C21.3489 18.2655 21.3783 17.8348 21.3783 17.8348L21.3489 16.9628C21.3489 16.9628 21.3329 16.8922 21.3329 16.7908C21.3489 16.7482 21.3676 16.7335 21.3849 16.7308ZM14.0809 18.2242C14.2143 18.2388 14.2743 18.3228 14.1169 18.4375C13.9303 18.5655 13.8596 18.5508 13.7436 18.6788C13.6156 18.8362 13.5743 19.3682 13.4449 19.1535C13.3169 18.9388 13.4023 18.6375 13.6183 18.4082C13.6757 18.3435 13.7474 18.2931 13.8277 18.2609C13.908 18.2287 13.9947 18.217 14.0809 18.2242ZM3.68225 18.8095C3.73692 18.7988 3.88092 18.9082 3.88092 18.9082C3.95158 18.9215 4.02358 19.0522 4.02358 19.0522C4.02358 19.0522 4.05292 19.1535 3.96625 19.1815C3.88092 19.2242 3.82358 19.1375 3.82358 19.1375C3.82358 19.1375 3.63692 18.8802 3.66358 18.8228C3.66543 18.8193 3.66808 18.8162 3.67132 18.8139C3.67457 18.8116 3.67831 18.8101 3.68225 18.8095ZM17.4249 20.8428C17.4529 20.8428 17.5116 20.8722 17.5836 21.0162C17.6556 21.1602 17.4689 22.1735 17.2396 22.0295C17.1103 21.9442 17.3103 21.6882 17.3103 21.4735C17.3103 21.3015 17.2809 21.1708 17.2809 21.0282C17.2809 20.8855 17.4249 20.8428 17.4249 20.8428ZM13.1756 22.6095C13.2263 22.6148 13.2396 22.6868 13.1703 22.8308C13.0703 23.0455 13.0423 23.1175 13.0276 23.3188C12.9983 23.5322 13.1289 24.1322 12.9289 23.9055C12.8569 23.8042 12.7849 23.3322 12.8423 23.1028C12.9049 22.7802 13.0903 22.6028 13.1756 22.6095ZM12.0823 25.4335C12.1303 25.4268 12.1543 25.4508 12.1543 25.4508C12.1836 25.5082 12.1249 25.5668 12.1103 25.5815C12.0563 25.6095 11.9982 25.6288 11.9383 25.6388C11.8529 25.6522 11.8983 25.5815 11.8983 25.5815C11.8983 25.5815 11.9529 25.4935 12.0249 25.4508C12.0429 25.4419 12.0623 25.436 12.0823 25.4335ZM8.24625 25.7375C8.36092 25.7375 8.36092 25.7948 8.36092 25.7948C8.36092 25.8375 8.31692 25.8535 8.20092 25.8388C8.10225 25.8255 8.08892 25.7962 8.10358 25.7815C8.10358 25.7682 8.13158 25.7375 8.24625 25.7375ZM9.11558 25.7788C9.12632 25.7776 9.13719 25.7786 9.14758 25.7815C9.14758 25.7815 9.63425 25.8668 9.94892 25.8802C10.1783 25.8948 10.2929 25.9108 10.5223 25.8962C10.6516 25.8962 10.5796 25.8802 10.7796 25.8802C10.8516 25.8668 10.8089 25.9682 10.7516 25.9828C10.5369 26.0402 10.4503 26.0095 10.2649 26.0242C10.1063 26.0375 10.0343 26.0522 9.87692 26.0522C9.60492 26.0522 9.57825 26.0682 9.19158 25.9535C9.11958 25.9255 9.03158 25.8388 9.06092 25.8108C9.06706 25.8017 9.07516 25.7942 9.08462 25.7886C9.09408 25.7831 9.10466 25.7797 9.11558 25.7788ZM5.86892 25.8655C6.03692 25.8695 5.98358 25.9255 5.98358 25.9255C5.98358 25.9255 5.98225 25.9815 5.88225 26.0522C5.78092 26.1242 5.73958 26.0815 5.72492 26.0815C5.71158 26.0815 5.61025 26.0242 5.61025 25.9668C5.62492 25.9095 5.78358 25.8682 5.78358 25.8682C5.81194 25.8654 5.84044 25.8645 5.86892 25.8655ZM14.8836 27.8388C14.8952 27.8386 14.9068 27.8395 14.9183 27.8415L14.9463 27.8988C14.9463 27.9122 14.8316 28.0722 14.7743 28.0722C14.7036 28.0562 14.7303 27.9722 14.7303 27.9722C14.7303 27.9722 14.7023 27.8855 14.7876 27.8575C14.8184 27.8462 14.8508 27.8399 14.8836 27.8388ZM13.8143 28.2628C13.8249 28.2628 13.8383 28.2642 13.8449 28.2708V28.3282C13.8583 28.3722 13.4849 28.7882 13.2276 29.0322C12.9849 29.2615 12.5689 29.5762 12.5689 29.5762H12.5116V29.5028L12.5276 29.4748L12.5556 29.4322L12.5849 29.3882L12.6129 29.3482L12.6996 29.2455L12.8996 29.0602L13.0996 28.8735L13.4156 28.5575C13.4156 28.5575 13.5289 28.4308 13.5716 28.4015C13.6143 28.3735 13.6436 28.3442 13.6863 28.3162C13.7289 28.2948 13.7796 28.2655 13.8143 28.2628ZM11.7436 29.9868C11.7554 29.9851 11.7674 29.9859 11.7789 29.9891C11.7904 29.9923 11.8011 29.9979 11.8103 30.0055C11.8543 30.1055 11.7836 30.1335 11.7836 30.1335L11.6529 30.2348C11.6383 30.2348 11.5529 30.3068 11.5249 30.2628C11.4956 30.2202 11.5383 30.1628 11.5383 30.1482C11.5383 30.1348 11.6249 30.0348 11.6969 30.0055C11.711 29.9961 11.7269 29.9898 11.7436 29.9868ZM10.3476 31.3122C10.4063 31.3055 10.4489 31.3935 10.4489 31.3935C10.4489 31.3935 10.4783 31.4348 10.4783 31.4922C10.4783 31.5362 10.3489 31.5215 10.2783 31.5788C10.1916 31.6362 10.3649 31.8095 10.0916 31.7948C9.93558 31.7815 10.0209 31.6375 10.0356 31.6228L10.1343 31.4802C10.2063 31.3788 10.2503 31.3642 10.3209 31.3202C10.3291 31.3155 10.3382 31.3127 10.3476 31.3122Z" fill="white"/>
</svg>
