<svg xmlns="http://www.w3.org/2000/svg" width="33" height="28" viewBox="0 0 33 28" fill="none"><path d="M19.2235 15.1894C19.1981 15.1958 19.0966 15.1958 19.0521 15.1958H15.7759V15.9577H19.1092C19.1346 15.9577 19.3315 15.9577 19.3696 15.9513C20.0489 15.8878 20.36 15.3227 20.36 14.8275C20.36 14.3196 20.0362 13.7735 19.4204 13.7164C19.2997 13.7037 19.1981 13.7037 19.1537 13.7037H16.9759C16.8807 13.7037 16.7727 13.6973 16.7346 13.6846C16.5632 13.6402 16.4997 13.4878 16.4997 13.3608C16.4997 13.2465 16.5632 13.0942 16.741 13.0434C16.7918 13.0307 16.8489 13.0243 16.9696 13.0243H20.1124V12.2751H16.9188C16.7854 12.2751 16.6838 12.2815 16.6013 12.2942C16.0553 12.3704 15.6743 12.8085 15.6743 13.3672C15.6743 13.8243 15.96 14.3577 16.5886 14.4466C16.7029 14.4593 16.8616 14.4593 16.9315 14.4593H19.0521C19.0902 14.4593 19.1854 14.4593 19.2045 14.4656C19.4458 14.4973 19.5283 14.6751 19.5283 14.8339C19.5283 14.9862 19.4331 15.1513 19.2235 15.1894Z" fill="white"></path><path d="M13.0139 15.1894C12.9885 15.1958 12.887 15.1958 12.8489 15.1958H9.56631V15.9577H12.8997C12.9251 15.9577 13.1219 15.9577 13.16 15.9513C13.8393 15.8878 14.1505 15.3227 14.1505 14.8275C14.1505 14.3196 13.8266 13.7735 13.2108 13.7164C13.0901 13.7037 12.9885 13.7037 12.9441 13.7037H10.7663C10.6711 13.7037 10.5631 13.6973 10.525 13.6846C10.3536 13.6402 10.2901 13.4878 10.2901 13.3608C10.2901 13.2465 10.3536 13.0942 10.5314 13.0434C10.5822 13.0307 10.6393 13.0243 10.76 13.0243H13.9028V12.2751H10.7092C10.5758 12.2751 10.4742 12.2815 10.3917 12.2942C9.84568 12.3704 9.46472 12.8085 9.46472 13.3672C9.46472 13.8243 9.75044 14.3577 10.379 14.4466C10.4933 14.4593 10.652 14.4593 10.7219 14.4593H12.8425C12.8806 14.4593 12.9758 14.4593 12.9949 14.4656C13.2362 14.4973 13.3187 14.6751 13.3187 14.8339C13.3187 14.9862 13.2298 15.1513 13.0139 15.1894Z" fill="white"></path><path d="M7.85836 12.2497H7.03296V15.9767H7.85836V12.2497Z" fill="white"></path><path d="M5.21074 15.9767V12.2497H4.38534V15.0307L1.63613 12.2497H0.575806V15.9767H1.40121V13.183L4.16947 15.9767H5.21074Z" fill="white"></path><path d="M31.7569 12.2497V15.0307L29.0077 12.2497H27.9474V15.9767H28.7728V13.183L31.5347 15.9767H32.576V12.2497H31.7569Z" fill="white"></path><path d="M23.6489 12.2497L21.3251 15.9767H22.3283L22.741 15.31H25.4521L25.8648 15.9767H26.8616L24.5378 12.2497H23.6489ZM25.0267 14.6053H23.1663L24.0997 13.1068L25.0267 14.6053Z" fill="white"></path><path d="M5.16631 10.1354C6.82981 5.27826 11.414 2.01475 16.5822 2.01475C21.7505 2.01475 26.341 5.27826 27.9981 10.1354L28.0108 10.1735H31.6489V9.73542L30.1378 9.55764C29.2045 9.4497 29.0077 9.037 28.7537 8.51636L28.6902 8.38938C26.5061 3.74174 21.7505 0.732208 16.5822 0.732208C11.4076 0.732208 6.65838 3.74174 4.47424 8.40208L4.41075 8.52906C4.15678 9.0497 3.95996 9.4624 3.02662 9.57034L1.5155 9.74811V10.1862H5.14726L5.16631 10.1354Z" fill="white"></path><path d="M28.0108 18.0593L27.9981 18.0974C26.3346 22.9545 21.7505 26.2117 16.5822 26.2117C11.414 26.2117 6.82346 22.9482 5.16631 18.091L5.15361 18.0529H1.52185V18.491L3.03297 18.6688C3.9663 18.7767 4.16313 19.1894 4.4171 19.7101L4.48059 19.8371C6.66473 24.4974 11.4203 27.5069 16.5886 27.5069C21.7568 27.5069 26.5124 24.4974 28.6966 19.8434L28.76 19.7164C29.014 19.1958 29.2108 18.7831 30.1442 18.6751L31.6553 18.4974V18.0593H28.0108Z" fill="white"></path></svg>