<svg xmlns="http://www.w3.org/2000/svg" width="33" height="22" viewBox="0 0 33 22" fill="none"><g clip-path="url(#clip0_601_1308)"><path d="M16.5757 0.376171C7.82155 0.376171 0.723633 4.96784 0.723633 10.6303C0.723633 16.2949 7.82155 20.8887 16.5757 20.8887C25.3299 20.8887 32.4278 16.297 32.4278 10.6303C32.4278 4.96367 25.3299 0.376171 16.5757 0.376171ZM16.5757 16.4866C15.2736 16.4866 14.2111 13.922 14.1445 10.6949C14.9278 10.7637 15.7424 10.8012 16.5757 10.8012C17.409 10.8012 18.2236 10.7637 19.007 10.6949C18.9403 13.9199 17.8778 16.4866 16.5757 16.4866ZM14.3049 8.13242C14.659 5.85117 15.5424 4.23242 16.5757 4.23242C17.609 4.23242 18.4924 5.85117 18.8465 8.13242C18.1195 8.197 17.3611 8.23242 16.5757 8.23242C15.7903 8.23242 15.032 8.197 14.3049 8.13242ZM16.5757 1.8595C14.8757 1.8595 13.4257 4.40534 12.8903 7.9595C9.66738 7.45742 7.41738 6.31159 7.41738 4.98034C7.41738 3.1845 11.5174 1.72825 16.5757 1.72825C21.634 1.72825 25.734 3.1845 25.734 4.98034C25.734 6.31159 23.484 7.45742 20.2611 7.9595C19.7257 4.40534 18.2757 1.8595 16.5757 1.8595ZM2.99655 10.247C2.99655 8.5095 3.6653 6.87825 4.82988 5.47825C4.81738 5.57617 4.80905 5.67617 4.80905 5.77617C4.80905 7.96575 8.09238 9.83242 12.6736 10.5199C12.6695 10.6783 12.6695 10.8387 12.6695 10.9991C12.6695 15.0803 13.8132 18.5366 15.3945 19.7095C8.44655 19.2908 2.99655 15.2137 2.99655 10.247ZM17.757 19.7095C19.3382 18.5366 20.482 15.0803 20.482 10.9991C20.482 10.8366 20.4799 10.6783 20.4778 10.5199C25.057 9.83242 28.3424 7.96784 28.3424 5.77617C28.3424 5.67617 28.334 5.57617 28.3215 5.47825C29.4861 6.88242 30.1549 8.5095 30.1549 10.247C30.1549 15.2137 24.7049 19.2908 17.757 19.7095Z" fill="#ffffffff"></path></g><defs><clipPath id="clip0_601_1308"><rect width="32" height="20.8" fill="white" transform="translate(0.575684 0.232422)"></rect></clipPath></defs></svg>