<svg width="32" height="32" viewBox="0 0 32 32" fill="none" xmlns="http://www.w3.org/2000/svg">
<path d="M16 0C7.164 0 0 7.164 0 16C0 24.836 7.164 32 16 32C24.836 32 32 24.836 32 16C32 7.164 24.836 0 16 0ZM16 1.04C24.2613 1.04 30.9587 7.73733 30.9587 16C30.9587 24.2613 24.2627 30.9587 16 30.9587C7.73733 30.9587 1.04133 24.2613 1.04133 16C1.04133 7.73867 7.73867 1.04 16 1.04ZM15.096 1.88C14.656 1.89867 14.216 1.936 13.7733 1.984L13.6307 5.90933C13.9446 5.85621 14.2604 5.8144 14.5773 5.784L14.6707 3.13333L14.6533 2.95067L14.7107 3.124L15.596 5.10933H16.404L17.2893 3.12533L17.3427 2.95067L17.3293 3.13333L17.4227 5.784C17.732 5.81333 18.0533 5.856 18.3693 5.90933L18.224 1.984C17.7844 1.93446 17.3433 1.89978 16.9013 1.88L16.0307 4.04667L16 4.20667L15.9693 4.04667L15.096 1.88ZM24.024 4.312L21.9667 7.54933C22.2267 7.74933 22.5693 8.044 22.7893 8.24533L24.7267 7.24L24.8493 7.148L24.7573 7.27333L23.7547 9.21067C23.972 9.444 24.2853 9.82133 24.4613 10.0507L27.7013 7.992C27.5026 7.73496 27.2981 7.48245 27.088 7.23467L25.036 8.58667L24.896 8.70933L25 8.556L25.9067 6.748L25.2667 6.108L23.4587 7.01467L23.3053 7.11867L23.4267 6.97733L24.784 4.92533C24.544 4.72267 24.316 4.53733 24.024 4.312ZM7.33333 5.04667C6.85333 5.096 6.48267 5.424 5.476 6.54667C5.12693 6.94226 4.79032 7.34868 4.46667 7.76533L7.232 10.388C8.148 9.37467 8.52 8.99867 9.24267 8.23733C9.75333 7.69733 10.0427 7.07733 9.53067 6.48133C9.25333 6.15867 8.78667 6.088 8.39733 6.248L8.36 6.26133L8.37333 6.22667C8.42142 6.04975 8.41633 5.86259 8.35871 5.68854C8.30109 5.5145 8.19349 5.36127 8.04933 5.248C7.94913 5.169 7.83426 5.11064 7.71136 5.07631C7.58846 5.04198 7.45997 5.03103 7.33333 5.04667ZM7.34133 5.86667C7.52267 5.81733 7.71067 5.94667 7.752 6.13333C7.79467 6.32 7.67733 6.496 7.54667 6.64267C7.25333 6.976 6.172 8.10667 6.172 8.10667L5.636 7.596C6.192 6.916 6.784 6.29733 7.052 6.052C7.13241 5.96818 7.23157 5.90466 7.34133 5.86667ZM16 6.51067C13.6512 6.50963 11.3856 7.38009 9.64167 8.95353C7.89778 10.527 6.7997 12.6915 6.56 15.028V15.0307C6.40934 16.5131 6.60963 18.0101 7.14468 19.4008C7.67973 20.7914 8.53453 22.0366 9.63996 23.0358C10.7454 24.0349 12.0704 24.7598 13.5079 25.152C14.9454 25.5442 16.455 25.5926 17.9147 25.2933C20.0542 24.8535 21.9764 23.6886 23.3562 21.9953C24.7361 20.302 25.4891 18.1843 25.488 16C25.4855 13.4845 24.4851 11.0728 22.7062 9.29417C20.9274 7.51557 18.5155 6.51545 16 6.51333V6.51067ZM8.61733 6.83333C8.68 6.83333 8.74533 6.85067 8.804 6.89067C8.92133 6.96933 8.97467 7.104 8.94533 7.23733C8.91067 7.396 8.77867 7.54533 8.672 7.66133L7.27867 9.15467L6.71867 8.62133C6.71867 8.62133 7.768 7.512 8.112 7.156C8.248 7.01467 8.336 6.92933 8.42933 6.88267C8.48715 6.85265 8.55223 6.8358 8.61733 6.83333ZM16 7.75733C17.0828 7.75611 18.1552 7.96847 19.1558 8.38227C20.1564 8.79607 21.0655 9.40317 21.8312 10.1688C22.5968 10.9345 23.2039 11.8436 23.6177 12.8442C24.0315 13.8448 24.2439 14.9172 24.2427 16H16V24.2427C14.9172 24.2439 13.8448 24.0315 12.8442 23.6177C11.8436 23.2039 10.9345 22.5968 10.1688 21.8312C9.40317 21.0655 8.79607 20.1564 8.38227 19.1558C7.96847 18.1552 7.75611 17.0828 7.75733 16H16V7.75733Z" fill="white"/>
</svg>
